<?xml version="1.0" encoding="utf-8"?>
<!-- Generator: Adobe Illustrator 28.1.0, SVG Export Plug-In . SVG Version: 6.00 Build 0)  -->
<svg version="1.1" id="레이어_1" xmlns="http://www.w3.org/2000/svg" xmlns:xlink="http://www.w3.org/1999/xlink" x="0px"
	 y="0px" width="989px" height="456px" viewBox="0 0 989 456" style="enable-background:new 0 0 989 456;" xml:space="preserve">
<style type="text/css">
	.st0{fill:#FFFFFF;}
</style>
<g>
	<polygon points="1,89 1,343.6 578.9,455.7 988,324.9 988,110.3 579.6,0.3 	"/>
	<g>
		<polygon class="st0" points="712.2,188.6 673.1,188.2 673.1,69.8 601.5,53.9 601.5,390.9 673.1,373.3 673.1,247.9 712.2,246.6 
			712.2,363.6 765.4,350.5 765.4,90.5 712.2,78.6 		"/>
		<polygon class="st0" points="36.6,167.6 53.3,166 53.3,305.3 76.1,309.3 76.1,163.9 93.5,162.3 93.5,124.8 36.6,133.9 		"/>
		<polygon class="st0" points="129.1,238.8 165,240.3 165,198 129.1,198.9 129.1,159 166.7,155.6 166.7,113.2 103.1,123.3 
			103.1,314 169.8,325.7 169.8,283.1 129.1,278.7 		"/>
		<path class="st0" d="M288.1,312.8l-2.8-17.1l-2.7-17l-2.7-16.9l-2.7-16.8l-2.7-16.6l-2.7-16.5l-2.6-16.4l-2.6-16.3l-2.6-16.2
			l-2.6-16.1l-2.6-15.9l-2.5-15.8l-2.5-15.7l-47,7.5l-2.1,15.3l-2.1,15.2l-2.1,15.1l-2.1,15h0l-2.1,14.9l-2.1,14.9l-2.1,14.8
			l-2.1,14.7l-2,14.6l-2,14.5l-2,14.4l-2,14.3l-2,14.2l-2,14.1l-2,14l35.3,6.2l1.4-14.9l1.5-15l1.5-15l27.4,3l1.5,16l1.4,16.1
			l1.5,16.2l46.3,8.1l-2.8-17.4L288.1,312.8z M219.5,248.9l0.6-6.3l1.5-15.3L223,212l1.5-15.4L226,181l1.5-15.6l1.5-15.6l0.6-6.6
			l0.6,6.5l1.4,15.5l1.4,15.5l1.4,15.6l1.4,15.6l1.4,15.7l1.4,15.8l0.6,6.6L219.5,248.9z"/>
		<polygon class="st0" points="435.7,90.6 432,111.1 428.4,131.5 424.7,151.7 421.1,171.8 417.6,191.7 414,211.4 410.5,231 
			407.4,248.6 404.4,230.9 401.1,211.5 397.9,192.2 394.7,173 391.5,154 388.3,135.2 385.2,116.5 382,97.9 378.9,79.4 306.6,90.9 
			306.6,349.8 353,357.9 352.6,339.6 352.3,321.2 351.9,302.9 351.6,284.6 351.2,266.3 350.9,248.1 350.6,229.8 350.2,211.6 
			349.9,193.4 349.5,175.2 349.2,157 349.1,149.7 350.3,156.9 353.3,175 356.3,193.2 359.4,211.6 362.5,230.1 365.6,248.7 
			368.8,267.5 371.9,286.4 375.1,305.4 378.3,324.6 381.5,344 384.8,363.5 431.3,371.7 435,352.2 438.8,332.6 438.8,332.6 
			442.6,312.8 446.4,292.8 450.2,272.7 450.3,272.7 454.1,252.4 458.1,231.9 462,211.3 466,190.5 470,169.5 474.1,148.3 
			475.6,140.2 475.4,148.2 474.9,169.2 474.4,190.3 473.9,211.3 473.4,232.2 472.9,253.2 472.4,274.1 471.9,295 471.4,315.9 
			470.9,336.8 470.4,357.6 469.9,378.4 540.5,390.8 540.5,53.8 439.4,69.8 		"/>
		<path class="st0" d="M860.7,119.1l-33.4-6.1l-2.3,6.1l-5.5,14.6l-5.6,14.9l-5.8,15.3l-5.9,15.6l-6,16l-6.2,16.3l-6.3,16.7
			l-6.5,17.1l-0.5,1.3v49.7l53.6-8.2v43.3l30.4-8.4v-39.6l10.8-1.7v-34.4l-10.8,0.8V119.1z M830.4,250.7l-23.7,1.7l3-8.6l5.6-16.1
			l5.5-15.8l5.4-15.4l4.2-11.9V250.7z"/>
		<path class="st0" d="M942.4,167.3c0-33.9-19.7-45.3-34.1-45.6l0,0c-0.1,0-0.2,0-0.2,0c-0.1,0-0.2,0-0.3,0
			c-14.4,0-28.3,14.6-28.3,31.1v54.3v26.1v54.3c0,16.4,13.9,31.1,28.3,31.1c14.4,0,34.6-11.2,34.6-45.6v-36l-20.5,0.7v34.4
			c0,4.9-3,9.8-7.9,9.8s-6.9-4.9-6.9-9.8c0-3.1,0-22.2,0-38.9c0,0,0-12.2,0-26.1c0-16.7,0-35.8,0-38.9c0-4.9,2-9.8,6.9-9.8
			s7.9,4.9,7.9,9.8v25.4l20.5,0.7V167.3z"/>
	</g>
</g>
</svg>
